<?xml version="1.0" encoding="utf-8"?>
<!-- Generator: Adobe Illustrator 21.0.2, SVG Export Plug-In . SVG Version: 6.00 Build 0)  -->
<svg version="1.1" id="Layer_1" xmlns="http://www.w3.org/2000/svg" xmlns:xlink="http://www.w3.org/1999/xlink" x="0px" y="0px"
	 viewBox="0 0 255.1 51" style="enable-background:new 0 0 255.1 51;" xml:space="preserve">
<style type="text/css">
	.st0{fill:#FFFFFF;}
</style>
<g>
	<g>
		<g>
			<path class="st0" d="M140.4,8.5V7.3h-5.9V5.6h14.3v1.7h-5.9v1.3H140.4z M142.9,0.6c0,0.7,0.5,1.2,1.5,1.6
				c0.9,0.3,2.5,0.5,4.2,0.6l-0.3,1.7c-1.4,0-2.7-0.2-3.8-0.4c-1.4-0.3-2.3-0.8-2.8-1.3c-0.5,0.6-1.5,1-2.8,1.3
				c-1.2,0.3-2.4,0.4-3.8,0.4l-0.3-1.7c1.6-0.1,3.2-0.3,4.1-0.7c1-0.4,1.5-0.9,1.5-1.6H142.9z M145.2,8.9c1.1,0.6,1.6,1.4,1.6,2.3
				c0,0.9-0.5,1.7-1.6,2.3c-1,0.6-2.2,0.9-3.5,0.9c-1.4,0-2.6-0.3-3.6-0.9c-1.1-0.6-1.6-1.4-1.6-2.3c0-0.9,0.5-1.7,1.6-2.3
				c1-0.6,2.2-0.9,3.6-0.9C143,8,144.1,8.3,145.2,8.9z M139.6,10.1c-0.6,0.3-0.8,0.6-0.8,1c0,0.4,0.3,0.8,0.8,1
				c0.5,0.3,1.2,0.4,1.9,0.4c0.7,0,1.4-0.1,1.9-0.4c0.6-0.3,0.9-0.6,0.9-1c0-0.4-0.3-0.8-0.9-1c-0.5-0.3-1.2-0.4-1.9-0.4
				C140.8,9.7,140.2,9.8,139.6,10.1z"/>
			<path class="st0" d="M156.4,0.9c0,1,0.2,1.8,0.6,2.3c0.5,0.7,1.8,1.5,3.1,1.6l-0.3,1.6c-1,0-2-0.3-2.8-0.6
				c-0.8-0.4-1.4-1.2-1.8-1.8c-0.4,0.6-1.1,1.4-2,1.8c-0.8,0.4-1.7,0.6-2.6,0.6l-0.3-1.6c1.3-0.2,2.5-0.9,3-1.6
				c0.4-0.6,0.6-1.3,0.6-2.4H156.4z M161.8,8.9h-9.6V7.1h12v4.2h-9.6v0.9h9.6v1.7h-10.8c-0.4,0-0.7-0.1-0.8-0.2
				c-0.2-0.2-0.3-0.5-0.3-0.9V9.7h9.6V8.9z M161.8,0.9h2.3v5.6h-2.3V0.9z"/>
			<path class="st0" d="M171.6,1c0,2.7,0.3,4.7,0.9,6c0.5,1.1,1.3,1.7,2.5,1.9l-0.3,2c-1.1-0.1-1.7-0.4-2.4-0.9
				c-0.8-0.6-1.4-1.6-1.8-2.4c-0.4,0.9-1,1.8-1.9,2.4c-0.8,0.5-1.3,0.8-2.3,0.9l-0.3-2c1.1-0.2,2-0.8,2.5-1.9c0.6-1.2,0.9-3.2,0.9-6
				H171.6z M178.6,7.1v7h-2.3V1h2.3v4.3h1.8v1.8H178.6z"/>
			<path class="st0" d="M190.1,2.6c0.8,0.9,1.1,1.9,1.1,3.2c0,1.2-0.4,2.3-1.1,3.2c-0.8,1-2,1.4-3.4,1.4c-1.4,0-2.6-0.5-3.4-1.4
				c-0.7-0.9-1.1-1.9-1.1-3.2c0-1.3,0.4-2.3,1.1-3.2c0.8-1,2-1.5,3.4-1.5C188.2,1.2,189.3,1.6,190.1,2.6z M185.1,3.9
				c-0.4,0.5-0.5,1.1-0.5,1.9c0,0.7,0.2,1.3,0.5,1.8c0.4,0.6,1,0.8,1.7,0.8c0.7,0,1.2-0.3,1.7-0.8c0.4-0.5,0.6-1.1,0.6-1.8
				c0-0.7-0.2-1.4-0.6-1.9c-0.4-0.6-1-0.8-1.7-0.8C186.1,3.1,185.5,3.4,185.1,3.9z M192.6,1h2.3v13.1h-2.3V1z"/>
			<path class="st0" d="M205.7,9.6c0,0.4-0.4,0.7-0.6,0.8c-0.1,0.1-0.4,0.2-0.8,0.2h-5.8c-0.4,0-0.6-0.1-0.8-0.2
				c-0.2-0.2-0.3-0.5-0.3-0.9V1.2h2.2v3.4h3.5V1.2h2.5V9.6z M199.6,8.9h3.5V6.3h-3.5V8.9z M208.2,4.8V1.2h2.2V14h-2.2V6.5h-3V4.8
				H208.2z"/>
			<path class="st0" d="M215.2,8.9h4.1v1.8H214c-0.4,0-0.6-0.1-0.8-0.2c-0.2-0.2-0.3-0.5-0.3-0.9V1.2h6.3V3h-4.1V8.9z M223.4,6.8
				h-0.9V14h-2.1V1.2h2.1V5h0.9V1.2h2.1V14h-2.1V6.8z"/>
			<path class="st0" d="M235.1,3.3c0.1,0.2,0.3,0.4,0.3,0.6c0.1,0.2,0.1,0.5,0.1,0.7c0,0.9-0.4,1.6-1.1,2.2
				c-0.7,0.5-1.5,0.8-2.5,0.8c-1,0-1.8-0.3-2.5-0.8c-0.8-0.6-1.2-1.3-1.2-2.2c0-0.2,0-0.5,0.1-0.7c0.1-0.2,0.2-0.4,0.3-0.6h-0.9V1.6
				h3V0.5h2.4v1.1h2.9v1.7H235.1z M240.2,14h-2.2v-3.8h-9.3V8.5h11.6V14z M230.9,3.7c-0.3,0.2-0.4,0.6-0.4,0.9
				c0,0.3,0.1,0.6,0.4,0.9c0.3,0.3,0.6,0.4,1.1,0.4c0.4,0,0.7-0.1,1-0.4c0.3-0.2,0.4-0.5,0.4-0.9c0-0.4-0.1-0.7-0.4-0.9
				c-0.3-0.2-0.6-0.4-1-0.4C231.5,3.3,231.2,3.4,230.9,3.7z M240.2,4.9v2.6h-2.2V1.2h2.2v1.9h1.8v1.8H240.2z"/>
			<path class="st0" d="M247,11.9h1.4V6.6h2.2v5.3h4.4v1.8h-12.4l0-1.8h2.1V6.6h2.2V11.9z M252.1,11V3.3h-8.6V1.5h10.9V11H252.1z"/>
		</g>
	</g>
	<g>
		<path class="st0" d="M43.8,51c0,0-13.8,0-13.8,0c0.2,0,0.7-0.7,0.8-0.8c0.3-0.3,0.5-0.6,0.8-0.9c0.6-0.8,1.1-1.7,1.4-2.7
			c1.2-3.2,1.1-7-0.2-9.9c-1.4-3-3.6-5.7-5.1-8.2c-2.5-4.1-4.2-8.6-3.9-13.5c0.2-3.1,1.6-6.4,3.7-8.8c0,0,8.7,0,13.3,0
			C37,9.8,35.9,14.8,37.2,20c0.7,2.9,2.6,5.5,4,7.7c1.5,2.3,3.1,4.6,4.2,7.1c1.4,3.1,1.8,6.6,1.1,9.9c-0.3,1.6-0.8,3.2-1.6,4.6
			C44.8,49.5,44.1,51,43.8,51z"/>
		<path class="st0" d="M51.5,37.9h22.9V0.1H44.2c-2.3,2-3.7,6-2.7,10.1c0.8,3.2,3.1,6.1,5.2,8.9c3.3,4.4,6.9,9.3,5.9,15.2
			C52.5,35.5,52.1,36.8,51.5,37.9z"/>
		<path class="st0" d="M0,0.1v37.8h22.6c1.1-2.4,0.7-5.3,0-7c-2.2-5.3-5.7-8.2-7.7-12.9c-1.9-4.4-2.1-8.4-0.5-14.2
			c0.1-0.3,1-2.6,1.6-3.7H0z"/>
		<path class="st0" d="M120.8,0.1h-18.8v30c0,0.1,0,0.9-0.1,1.6c-0.2,4.7-1.3,5.6-2.5,6.2h21.3V0.1z"/>
		<path class="st0" d="M79.6,6.3c0,14,0,37.5,0,37.5l0,0.6c0.1,3.3,2.8,6,6.2,6c3.3,0,6-2.6,6.2-5.9l0-0.7c0,0,0-23.5,0-37.5H79.6z"
			/>
	</g>
</g>
<g>
	<path class="st0" d="M146.8,24.9c0,2.9-2.5,5-5.7,5c-3.3,0-5.8-2.1-5.8-5c0-2.9,2.5-5,5.8-5C144.4,20,146.8,22,146.8,24.9z
		 M138.3,24.9c0,1.6,1.2,2.5,2.8,2.5c1.6,0,2.8-0.9,2.8-2.5c0-1.5-1.2-2.5-2.8-2.5C139.5,22.5,138.3,23.4,138.3,24.9z M141.5,31.4v2
		h8v-2h3V40h-14.1v-8.6H141.5z M141.5,37.6h8v-1.9h-8V37.6z M152.6,19.1v11.4h-3.1V19.1H152.6z"/>
	<path class="st0" d="M167.9,23.3h-12.5v-2.4h4.7v-2h3.1v2h4.7V23.3z M161.7,31.8c-3,0-5.2-1.6-5.2-3.9c0-2.3,2.2-3.9,5.2-3.9
		c3.1,0,5.2,1.6,5.2,3.9C166.9,30.2,164.8,31.8,161.7,31.8z M158,33.2h14.1v7.1h-3v-4.6H158V33.2z M161.7,29.5
		c1.4,0,2.3-0.5,2.3-1.6c0-1.1-0.9-1.6-2.3-1.6c-1.4,0-2.3,0.5-2.3,1.6C159.4,29,160.3,29.5,161.7,29.5z M174.9,27h-2.8v5.3h-3V19.1
		h3v5.4h2.8V27z"/>
	<path class="st0" d="M184.1,24.8c0,3.4,1.7,7.1,5.2,8.6l-1.7,2.4c-2.5-1.1-4.1-3.1-5.1-5.7c-0.9,2.8-2.6,5.1-5.1,6.2l-1.7-2.4
		c3.5-1.6,5.3-5.5,5.3-9.1v-1.2h-4.4v-2.5h11.9v2.5h-4.4V24.8z M193.5,19.1v21.2h-3V19.1H193.5z"/>
	<path class="st0" d="M214.7,37.5v2.4H199v-6.3h2.9v-2.8c-1.9,0.1-3.6,0.1-5.2,0.1l-0.4-2.4c3.9,0,9-0.1,13.5-0.6L210,30
		c-1.7,0.3-3.4,0.5-5.1,0.6v4H202v2.9H214.7z M197.9,23.6c0-2.3,2.2-3.8,5.3-3.8c3.1,0,5.3,1.5,5.3,3.8s-2.2,3.8-5.3,3.8
		C200,27.4,197.9,25.8,197.9,23.6z M200.7,23.6c0,1,1,1.6,2.4,1.6c1.4,0,2.4-0.5,2.4-1.6s-1-1.6-2.4-1.6
		C201.7,22,200.7,22.6,200.7,23.6z M211.2,31.4V19.1h3v16.1h-3v-1.7h-4v-2.1H211.2z"/>
	<path class="st0" d="M225.5,31.7c-1.7-0.8-2.8-2.1-3.4-3.7c-0.8,1.8-2,3.3-3.9,4.2l-1.7-2.3c2.9-1.4,4-4.2,4-6.7v-2.7h2.9v2.7
		c0,2.5,1,4.9,3.7,6.2L225.5,31.7z M235.5,37.5v2.4h-14.8v-6.8h3v4.4H235.5z M227.8,26.4h-2.5v-2.5h2.5v-4.5h2.8v14.9h-2.8V26.4z
		 M234.9,34.9h-2.9V19.1h2.9V34.9z"/>
	<path class="st0" d="M241.3,33.1c2.9,0,5.2-0.1,7.8-0.6l0.3,2.4c-3.1,0.5-5.8,0.6-9.3,0.6h-1.7V20.9h9.8v2.4h-6.8v3.4h6.1v2.4h-6.1
		V33.1z M255.1,19.1v21.2h-3V29h-3.6v-2.4h3.6v-7.5H255.1z"/>
</g>
</svg>
