<svg id="Layer_16" data-name="Layer 16" xmlns="http://www.w3.org/2000/svg" viewBox="0 0 96 96"><defs><style>.cls-1,.cls-5{fill:#fff;}.cls-1,.cls-3,.cls-4{fill-rule:evenodd;}.cls-2,.cls-4{fill:#2b2d2e;}.cls-3{fill:#0ac;}</style></defs><title>sprite-icon2-04</title><polygon class="cls-1" points="12.78 89.55 12.78 1 88.92 1 88.92 73.69 73.05 89.55 12.78 89.55"/><path class="cls-2" d="M87.92,2V73.28L72.64,88.55H13.78V2H87.92m2-2H11.78V90.55H73.47L89.92,74.1V0Z"/><path class="cls-3" d="M20.4,82.68V80.15H48.24v2.53Z"/><path class="cls-4" d="M20.48,40.31V37.77h24v2.54Z"/><path class="cls-4" d="M20.48,28.93V26.39H81.22v2.54Z"/><path class="cls-4" d="M20.48,17.57V15H81.22v2.54Z"/><path class="cls-3" d="M72.2,90.55V72.84H89.92Z"/><path class="cls-2" d="M87.92,2V73.28L72.64,88.55H13.78V2H87.92m2-2H11.78V90.55H73.47L89.92,74.1V0Z"/><polygon class="cls-1" points="71.94 89.55 71.94 72.57 88.92 72.57 88.92 73.1 72.47 73.1 72.47 89.55 71.94 89.55"/><polygon class="cls-2" points="89.92 71.57 73.47 71.57 70.94 71.57 70.94 74.1 70.94 90.55 73.47 90.55 73.47 74.1 89.92 74.1 89.92 71.57 89.92 71.57"/><path class="cls-3" d="M7.08,43.13v-1.3c1.54-3.15,3.63-7.39,4.73-9.6.7,1.43,2,4.18,4.55,9.37l.11.22v1.31Z"/><path class="cls-2" d="M11.81,34.49l3.66,7.56v.07H8.08v-.07l3.72-7.56m0-4.29a.19.19,0,0,0-.13.06c-.09.08-5.61,11.33-5.61,11.33v2.53H17.47V41.59h0S12,30.32,12,30.26a.2.2,0,0,0-.13-.05Z"/><rect class="cls-5" x="7.08" y="42.59" width="9.39" height="52.41"/><path class="cls-2" d="M15.47,43.59V94H8.08V43.59h7.39m2-2H6.08V96H17.47V41.59Z"/></svg>