<svg id="Layer_3" data-name="Layer 3" xmlns="http://www.w3.org/2000/svg" viewBox="0 0 96 96"><defs><style>.cls-1{fill:#2b2d2e;}.cls-2{fill:#fff;}.cls-3{fill:#0ac;}</style></defs><title>sprite-icon-03</title><rect class="cls-1" x="47" y="87" width="2" height="9"/><rect class="cls-2" x="21.5" y="13" width="53" height="75" rx="25" ry="25"/><path class="cls-1" d="M49.5,14a24,24,0,0,1,24,24V63a24,24,0,0,1-24,24h-3a24,24,0,0,1-24-24V38a24,24,0,0,1,24-24h3m0-2h-3a26.08,26.08,0,0,0-26,26V63a26.08,26.08,0,0,0,26,26h3a26.08,26.08,0,0,0,26-26V38a26.08,26.08,0,0,0-26-26Z"/><rect class="cls-3" x="45.5" y="21.5" width="5" height="15.5" rx="2.31" ry="2.31"/><path class="cls-1" d="M48.19,22.5a1.33,1.33,0,0,1,1.31,1.31V34.69A1.33,1.33,0,0,1,48.19,36h-.37a1.33,1.33,0,0,1-1.31-1.31V23.81a1.33,1.33,0,0,1,1.31-1.31h.38m0-2h-.37a3.32,3.32,0,0,0-3.31,3.31V34.69A3.32,3.32,0,0,0,47.81,38h.38a3.32,3.32,0,0,0,3.31-3.31V23.81a3.32,3.32,0,0,0-3.31-3.31Z"/><rect class="cls-1" x="20.5" y="43.31" width="55" height="2"/></svg>