<svg id="Layer_17" data-name="Layer 17" xmlns="http://www.w3.org/2000/svg" viewBox="0 0 96 96"><defs><style>.cls-1{fill:#fff;}.cls-2,.cls-3{fill:#2b2d2e;}.cls-3{fill-rule:evenodd;}.cls-4{fill:#0ac;}</style></defs><title>sprite-icon2-08</title><rect class="cls-1" x="12.84" y="1" width="70.33" height="94" rx="2.95" ry="2.95"/><path class="cls-2" d="M80.22,2a2,2,0,0,1,1.95,1.95V92.05A2,2,0,0,1,80.22,94H15.78a2,2,0,0,1-1.95-1.95V3.95A2,2,0,0,1,15.78,2H80.22m0-2H15.78a4,4,0,0,0-3.95,3.95V92.05A4,4,0,0,0,15.78,96H80.22a4,4,0,0,0,3.95-3.95V3.95A4,4,0,0,0,80.22,0Z"/><path class="cls-3" d="M33.14,12h2.63V51.48H33.14Z"/><path class="cls-4" d="M50.23,21.75,34.45,31.47V12Z"/><path class="cls-2" d="M33.14,33.82V9.68l19.6,12.07Zm2.63-19.44V29.11l12-7.36Z"/><path class="cls-3" d="M30.25,78.9V76.27H65.75V78.9Z"/><path class="cls-3" d="M30.25,71V68.38H65.75V71Z"/><path class="cls-3" d="M30.25,63.12V60.49H65.75v2.63Z"/></svg>