<svg id="Layer_14" data-name="Layer 14" xmlns="http://www.w3.org/2000/svg" viewBox="0 0 96 96"><defs><style>.cls-1{fill:#fff;}.cls-1,.cls-3{fill-rule:evenodd;}.cls-2,.cls-3{fill:#2b2d2e;}.cls-4{fill:#0ac;}</style></defs><title>sprite-icon2-02</title><path class="cls-1" d="M3.46,73.9A2.47,2.47,0,0,1,1,71.43V14.5A2.47,2.47,0,0,1,3.46,12H92.54A2.47,2.47,0,0,1,95,14.5V71.43a2.47,2.47,0,0,1-2.46,2.47Z"/><path class="cls-2" d="M92.54,13A1.47,1.47,0,0,1,94,14.5V71.43a1.47,1.47,0,0,1-1.46,1.47H3.46A1.47,1.47,0,0,1,2,71.43V14.5A1.47,1.47,0,0,1,3.46,13H92.54m0-2H3.46A3.47,3.47,0,0,0,0,14.5V71.43A3.47,3.47,0,0,0,3.46,74.9H92.54A3.47,3.47,0,0,0,96,71.43V14.5A3.47,3.47,0,0,0,92.54,11Z"/><path class="cls-2" d="M40.5,25.83A1.47,1.47,0,0,1,42,27.3V58.53A1.47,1.47,0,0,1,40.5,60H18.57a1.47,1.47,0,0,1-1.46-1.47V27.3a1.47,1.47,0,0,1,1.46-1.47H40.5m0-2H18.57a3.47,3.47,0,0,0-3.46,3.47V58.53A3.47,3.47,0,0,0,18.57,62H40.5A3.47,3.47,0,0,0,44,58.53V27.3a3.47,3.47,0,0,0-3.46-3.47Z"/><path class="cls-2" d="M77.43,25.83a1.47,1.47,0,0,1,1.46,1.47V58.53A1.47,1.47,0,0,1,77.43,60H55.5A1.47,1.47,0,0,1,54,58.53V27.3a1.47,1.47,0,0,1,1.46-1.47H77.43m0-2H55.5A3.47,3.47,0,0,0,52,27.3V58.53A3.47,3.47,0,0,0,55.5,62H77.43a3.47,3.47,0,0,0,3.46-3.47V27.3a3.47,3.47,0,0,0-3.46-3.47Z"/><path class="cls-1" d="M67.5,83v2h-39V83Z"/><polygon class="cls-2" points="67.5 82.97 28.5 82.97 28.5 84.97 67.5 84.97 67.5 82.97 67.5 82.97"/><path class="cls-3" d="M47,66.67h2v17H47Z"/><path class="cls-4" d="M31.92,47.12H27.14l-1,3.19H23l5-14.8h3l5,14.8H32.93Zm-4.06-2.33H31.2l-1.63-5.21h-.06Z"/><path class="cls-2" d="M60.92,50.31V35.51h4.84a7,7,0,0,1,4.07,1,3.46,3.46,0,0,1,1.46,3,3.24,3.24,0,0,1-.53,1.82,3.21,3.21,0,0,1-1.54,1.21,3.18,3.18,0,0,1,2.08,1.2A3.61,3.61,0,0,1,72,46a3.83,3.83,0,0,1-1.4,3.22,6.31,6.31,0,0,1-4,1.09Zm3-8.6h2a3,3,0,0,0,1.83-.49,1.68,1.68,0,0,0,.64-1.42,1.78,1.78,0,0,0-.64-1.51,3.16,3.16,0,0,0-1.92-.49H63.88Zm0,2.05V48h2.75a2.75,2.75,0,0,0,1.8-.51A1.86,1.86,0,0,0,69,46a2.18,2.18,0,0,0-.61-1.66,2.57,2.57,0,0,0-1.84-.58Z"/></svg>