<svg id="Layer_2_copy" data-name="Layer 2 copy" xmlns="http://www.w3.org/2000/svg" viewBox="0 0 96 96"><defs><style>.cls-1,.cls-4{fill:#fff;}.cls-2{fill:#2b2d2e;}.cls-3{fill:#0ac;fill-rule:evenodd;}.cls-4{font-size:23px;font-family:Roboto-Bold, Roboto;font-weight:700;letter-spacing:-0.05em;}</style></defs><title>sprite-icon2-01</title><rect class="cls-1" x="1" y="18.35" width="94" height="66.68" rx="2.73" ry="2.73"/><path class="cls-2" d="M92.27,19.35A1.73,1.73,0,0,1,94,21.09V82.3A1.73,1.73,0,0,1,92.27,84H3.73A1.73,1.73,0,0,1,2,82.3V21.09a1.73,1.73,0,0,1,1.73-1.73H92.27m0-2H3.73A3.73,3.73,0,0,0,0,21.09V82.3A3.73,3.73,0,0,0,3.73,86H92.27A3.73,3.73,0,0,0,96,82.3V21.09a3.73,3.73,0,0,0-3.73-3.73Z"/><polygon class="cls-2" points="67.66 9.81 65.66 9.81 65.66 23.81 67.66 23.81 67.66 9.81 67.66 9.81"/><polygon class="cls-2" points="29.1 9.81 27.1 9.81 27.1 23.81 29.1 23.81 29.1 9.81 29.1 9.81"/><path class="cls-3" d="M45.51,39.82A18.66,18.66,0,1,1,26.86,58.47,18.66,18.66,0,0,1,45.51,39.82Z"/><polygon class="cls-2" points="96 31 0 31 0 33 96 33 96 31 96 31"/><text class="cls-4" transform="translate(32.13 66.67)">15</text></svg>