<svg id="Layer_4" data-name="Layer 4" xmlns="http://www.w3.org/2000/svg" xmlns:xlink="http://www.w3.org/1999/xlink" viewBox="0 0 96 96"><defs><style>.cls-1,.cls-5{fill:none;}.cls-2{fill:#fff;}.cls-3{fill:#2b2d2e;}.cls-4{clip-path:url(#clip-path);}.cls-5{stroke:#2b2d2e;stroke-miterlimit:10;stroke-width:2px;}.cls-6{fill:#0ac;}</style><clipPath id="clip-path"><polygon class="cls-1" points="87.65 33.79 48.52 50.79 48.52 50.79 9.42 33.8 9.42 47.93 48.54 64.93 48.54 64.91 87.65 47.91 87.65 33.79"/></clipPath></defs><title>sprite-icon-04</title><polygon class="cls-2" points="10.42 47.27 10.42 35.33 48.52 51.88 86.65 35.31 86.65 47.26 48.52 63.83 10.42 47.27"/><path class="cls-3" d="M85.65,36.84V46.6L48.52,62.74,11.42,46.61V36.85L47.72,52.63l2.8,1.21V52.1L85.65,36.84m2-3-39.12,17h0l-39.1-17V47.93l39.13,17v0l39.1-17V33.79Z"/><g class="cls-4"><polygon class="cls-3" points="49.63 52.93 47.63 52.93 47.63 64.93 49.63 64.93 49.63 52.93 49.63 52.93"/></g><polygon class="cls-2" points="2.4 33.97 48.34 12 93.64 34.25 48.62 54.32 2.4 33.97"/><path class="cls-3" d="M48.33,13.11l43,21.1-42.67,19L4.79,33.93,48.33,13.11m0-2.22L0,34,48.62,55.41,96,34.29,48.34,10.89Z"/><ellipse class="cls-3" cx="47.33" cy="33.68" rx="5" ry="2.75"/><polyline class="cls-5" points="48 33.59 69.5 45.09 69.5 72.76"/><polygon class="cls-6" points="64.83 84.11 64.83 73.47 69.33 70.58 73.83 73.47 73.83 84.11 64.83 84.11"/><path class="cls-3" d="M69.33,71.77,72.83,74v9.1h-7V74l3.5-2.24m0-2.38-5.48,3.52h0v12.2h11V72.91h0l-5.48-3.52Z"/><rect class="cls-3" x="63.83" y="80.11" width="11" height="5"/></svg>