<svg id="Layer_15" data-name="Layer 15" xmlns="http://www.w3.org/2000/svg" viewBox="0 0 96 96"><defs><style>.cls-1,.cls-4{fill:#fff;}.cls-2,.cls-5{fill:#2b2d2e;}.cls-3{fill:#0ac;}.cls-3,.cls-4,.cls-5{fill-rule:evenodd;}.cls-4{stroke:#2b2d2e;stroke-miterlimit:10;stroke-width:2px;}</style></defs><title>sprite-icon2-03</title><rect class="cls-1" x="1" y="16.94" width="94" height="62.12" rx="2.68" ry="2.68"/><path class="cls-2" d="M92.32,17.94A1.69,1.69,0,0,1,94,19.63V76.37a1.69,1.69,0,0,1-1.68,1.68H3.68A1.69,1.69,0,0,1,2,76.37V19.63a1.69,1.69,0,0,1,1.68-1.68H92.32m0-2H3.68A3.68,3.68,0,0,0,0,19.63V76.37a3.68,3.68,0,0,0,3.68,3.68H92.32A3.68,3.68,0,0,0,96,76.37V19.63a3.68,3.68,0,0,0-3.68-3.68Z"/><path class="cls-3" d="M33.88,50.31a.32.32,0,0,0-.32-.31H17a.31.31,0,0,0-.32.31v15A1.12,1.12,0,0,0,17,66s7.9-6,8-5.89a.33.33,0,0,0,.46,0c.1-.09,8,5.89,8,5.89a1.3,1.3,0,0,0,.37-.62Z"/><path class="cls-4" d="M25.29,30.75A11.05,11.05,0,1,1,14.24,41.8,11.05,11.05,0,0,1,25.29,30.75Z"/><path class="cls-5" d="M46,52.66v-2H79v2Z"/><path class="cls-5" d="M46.5,60V58h27v2Z"/><path class="cls-5" d="M46,45.33v-2H73v2Z"/><path class="cls-5" d="M46,38V36H85v2Z"/></svg>