<svg id="Layer_7" data-name="Layer 7" xmlns="http://www.w3.org/2000/svg" xmlns:xlink="http://www.w3.org/1999/xlink" viewBox="0 0 96 96"><defs><style>.cls-1,.cls-5{fill:#fff;}.cls-2{fill:#2b2d2e;}.cls-3{clip-path:url(#clip-path);}.cls-4{fill:#0ac;}.cls-4,.cls-5{fill-rule:evenodd;}</style><clipPath id="clip-path"><rect class="cls-1" x="51.35" y="49.67" width="44.65" height="31.26" rx="2.23" ry="2.23"/></clipPath></defs><title>sprite-icon-07</title><path class="cls-2" d="M72.56,18.42h-6v2h6v-2Zm-12,0h-6v2h6v-2Zm-12,0h-6v2h6v-2Zm-12,0h-6v2h6v-2Zm-12,0h-6v2h6v-2Zm-8,2.91h-2v6h2v-6Zm0,12h-2v6h2v-6Zm0,12h-2v6h2v-6Zm0,12h-2v6h2v-6Zm0,12h-2v.44A2.23,2.23,0,0,0,16.74,72H18.8V70H16.74a.23.23,0,0,1-.23-.23v-.44ZM30.8,70h-6v2h6V70Zm12,0h-6v2h6V70Zm12,0h-6v2h6V70Zm12,0h-6v2h6V70Zm8-3h-2v2.73a.23.23,0,0,1-.21.23l.21,2a2.23,2.23,0,0,0,1.92-1.65h0v0h0v0h0v0h0v0h0v0h0V67Zm0-12h-2v6h2V55Zm0-12h-2v6h2V43Zm0-12h-2v6h2V31Zm-.56-11.86-1.5,1.33a.23.23,0,0,1,.06.15V25h2V20.65h0v0h0v0h0a2.22,2.22,0,0,0-.54-1.17Z"/><polygon class="cls-2" points="16.74 29.58 14.51 29.58 14.51 36.28 16.74 36.28 16.74 29.58 16.74 29.58"/><polygon class="cls-2" points="23.44 34.05 7.81 34.05 7.81 36.28 23.44 36.28 23.44 34.05 23.44 34.05"/><polygon class="cls-2" points="74.79 77.58 72.56 77.58 72.56 86.51 74.79 86.51 74.79 77.58 74.79 77.58"/><polygon class="cls-2" points="89.3 84.28 58.05 84.28 58.05 86.51 89.3 86.51 89.3 84.28 89.3 84.28"/><rect class="cls-1" x="51.35" y="49.67" width="44.65" height="31.26" rx="2.23" ry="2.23"/><g class="cls-3"><path class="cls-4" d="M58,49.67H96V80.93H88.19Z"/></g><path class="cls-2" d="M93.77,51.67a.23.23,0,0,1,.23.23V78.7a.23.23,0,0,1-.23.23H53.58a.23.23,0,0,1-.23-.23V51.91a.23.23,0,0,1,.23-.23H93.77m0-2H53.58a2.23,2.23,0,0,0-2.23,2.23V78.7a2.23,2.23,0,0,0,2.23,2.23H93.77A2.23,2.23,0,0,0,96,78.7V51.91a2.23,2.23,0,0,0-2.23-2.23Z"/><polygon class="cls-5" points="91.15 61.95 84.84 55.64 78.52 61.95 80.1 63.53 84.84 58.8 89.57 63.53 91.15 61.95"/><rect class="cls-1" x="1" y="10.49" width="29.26" height="20.33" rx="1.23" ry="1.23"/><path class="cls-2" d="M29,11.49a.23.23,0,0,1,.23.23V29.58a.23.23,0,0,1-.23.23H2.23A.23.23,0,0,1,2,29.58V11.72a.23.23,0,0,1,.23-.23H29m0-2H2.23A2.23,2.23,0,0,0,0,11.72V29.58a2.23,2.23,0,0,0,2.23,2.23H29a2.23,2.23,0,0,0,2.23-2.23V11.72A2.23,2.23,0,0,0,29,9.49Z"/></svg>